<?xml version="1.0" encoding="UTF-8" standalone="no"?>
<svg
   xmlns:dc="http://purl.org/dc/elements/1.1/"
   xmlns:cc="http://creativecommons.org/ns#"
   xmlns:rdf="http://www.w3.org/1999/02/22-rdf-syntax-ns#"
   xmlns:svg="http://www.w3.org/2000/svg"
   xmlns="http://www.w3.org/2000/svg"
   xmlns:xlink="http://www.w3.org/1999/xlink"
   xmlns:sodipodi="http://sodipodi.sourceforge.net/DTD/sodipodi-0.dtd"
   xmlns:inkscape="http://www.inkscape.org/namespaces/inkscape"
   inkscape:version="1.0 (4035a4fb49, 2020-05-01)"
   sodipodi:docname="mistel.svg"
   width="210mm"
   height="297mm"
   viewBox="0 0 210 297"
   version="1.1"
   id="svg8">
  <sodipodi:namedview
     inkscape:current-layer="svg8"
     inkscape:window-maximized="1"
     inkscape:window-y="-9"
     inkscape:window-x="-9"
     inkscape:cy="571.54122"
     inkscape:cx="468.34497"
     inkscape:zoom="2.0182899"
     showgrid="false"
     id="namedview852"
     inkscape:window-height="1001"
     inkscape:window-width="1920"
     inkscape:pageshadow="2"
     inkscape:pageopacity="0"
     guidetolerance="10"
     gridtolerance="10"
     objecttolerance="10"
     borderopacity="1"
     bordercolor="#666666"
     pagecolor="#ffffff" />
  <defs
     id="defs2">
    <linearGradient
       id="linearGradient894">
      <stop
         id="stop890"
         offset="0"
         style="stop-color:#d40000;stop-opacity:1" />
      <stop
         id="stop892"
         offset="1"
         style="stop-color:#ff0204;stop-opacity:0.99818182" />
    </linearGradient>
    <linearGradient
       id="linearGradient886"
       inkscape:collect="always">
      <stop
         id="stop882"
         offset="0"
         style="stop-color:#008001;stop-opacity:1;" />
      <stop
         id="stop884"
         offset="1"
         style="stop-color:#008001;stop-opacity:0.77636364" />
    </linearGradient>
    <linearGradient
       id="linearGradient878"
       inkscape:collect="always">
      <stop
         id="stop874"
         offset="0"
         style="stop-color:#308013;stop-opacity:1;" />
      <stop
         id="stop876"
         offset="1"
         style="stop-color:#308013;stop-opacity:0.81090909" />
    </linearGradient>
    <linearGradient
       id="linearGradient870"
       inkscape:collect="always">
      <stop
         id="stop866"
         offset="0"
         style="stop-color:#008001;stop-opacity:1;" />
      <stop
         id="stop868"
         offset="1"
         style="stop-color:#008001;stop-opacity:0.68181818" />
    </linearGradient>
    <linearGradient
       id="linearGradient1122">
      <stop
         style="stop-color:#ffd5d5;stop-opacity:1"
         offset="0"
         id="stop1118" />
      <stop
         style="stop-color:#ff0204;stop-opacity:0.99818182"
         offset="1"
         id="stop1120" />
    </linearGradient>
    <radialGradient
       xlink:href="#linearGradient894"
       id="radialGradient1124"
       cx="58.167782"
       cy="128.94608"
       fx="58.167782"
       fy="128.94608"
       r="12.234337"
       gradientTransform="matrix(-0.80271304,0.82033777,-0.394147,-0.38567956,189.05367,127.5259)"
       gradientUnits="userSpaceOnUse" />
    <radialGradient
       xlink:href="#linearGradient1122"
       id="radialGradient1128"
       gradientUnits="userSpaceOnUse"
       gradientTransform="matrix(-0.61757658,-0.19567431,0.15931825,-0.50413149,94.969308,184.67989)"
       cx="59.764858"
       cy="134.4438"
       fx="59.764858"
       fy="134.4438"
       r="12.234337" />
    <radialGradient
       xlink:href="#linearGradient1122"
       id="radialGradient1132"
       gradientUnits="userSpaceOnUse"
       gradientTransform="matrix(-0.51091625,-0.16167079,0.13180274,-0.41652549,115.92212,175.78582)"
       cx="63.42535"
       cy="131.05141"
       fx="63.42535"
       fy="131.05141"
       r="12.234337" />
    <linearGradient
       gradientUnits="userSpaceOnUse"
       y2="150.70728"
       x2="132.1386"
       y1="151.49384"
       x1="32.171631"
       id="linearGradient872"
       xlink:href="#linearGradient870"
       inkscape:collect="always" />
    <linearGradient
       gradientUnits="userSpaceOnUse"
       y2="195.91954"
       x2="123.45345"
       y1="141.12274"
       x1="95.471268"
       id="linearGradient880"
       xlink:href="#linearGradient878"
       inkscape:collect="always" />
    <linearGradient
       gradientUnits="userSpaceOnUse"
       y2="135.43866"
       x2="167.05212"
       y1="131.50587"
       x1="113.60786"
       id="linearGradient888"
       xlink:href="#linearGradient886"
       inkscape:collect="always" />
  </defs>
  <metadata
     id="metadata5">
    <rdf:RDF>
      <cc:Work
         rdf:about="">
        <dc:format>image/svg+xml</dc:format>
        <dc:type
           rdf:resource="http://purl.org/dc/dcmitype/StillImage" />
        <dc:title />
      </cc:Work>
    </rdf:RDF>
  </metadata>
  <g
     id="layer1">
    <text
       xml:space="preserve"
       style="font-size:10.5833px;line-height:1.25;font-family:'Gill Sans MT';-inkscape-font-specification:'Gill Sans MT';letter-spacing:0px;word-spacing:0px;stroke-width:0.264583"
       x="123.25421"
       y="207.44522"
       id="text963"><tspan
         id="tspan961"
         x="123.25421"
         y="207.44522"
         style="stroke-width:0.264583"> </tspan></text>
  </g>
  <path
     d="m 86.018522,129.40657 c -2e-6,0 4.04155,8.90932 6.555672,12.75478 2.514118,3.84546 -1.900301,3.52638 13.021426,15.60783 0.80834,0.65448 11.59404,18.10449 11.77241,18.81797 0.17838,0.71347 0.36436,1.54335 -0.9586,0.80254 -1.32297,-0.74081 -10.36784,-15.7856 -10.36784,-15.7856 l -12.842628,-12.66434 -7.116363,-16.0321 c -0.194974,12.6898 -5.229492,21.65657 -10.027811,30.80535 9.705681,-2.5944 16.379131,0.87493 17.026868,16.39642 5.51901,0.51602 22.635434,-8.52474 28.252544,12.86536 2.9357,-2.95037 3.41787,-12.85002 1.47174,-25.09666 -0.51922,-3.26736 1.0184,-5.36194 1.0511,-8.45323 -11.12437,-2.33536 -11.70334,-10.56398 -11.60395,-19.17144 -11.99857,2.81241 -14.180305,-3.00111 -17.657832,-1.5136 z m 0,0 -0.578776,2.05259 0.642853,1.44849 c 0.01746,-1.13719 -9.5e-5,-2.30124 -0.06408,-3.50108 z"
     style="fill:url(#linearGradient880);fill-opacity:1;stroke:#008025;stroke-width:0.79375;stroke-linecap:butt;stroke-linejoin:miter;stroke-miterlimit:4;stroke-dasharray:none;stroke-opacity:1"
     id="path982" />
  <path
     d="m 130.21066,116.83266 c -7.65393,5.94378 -22.04073,10.8885 -34.781345,6.87348 16.465725,6.02322 36.664125,15.58967 51.509005,10.11463 0,0 0.72608,0.29913 -0.0382,1.15084 -0.76434,0.85168 -7.15842,2.31116 -12.67158,2.43189 -5.51317,0.12074 -15.85975,-2.94875 -19.84014,-4.57905 -3.98037,-1.63029 -12.37662,-5.49169 -18.802465,-8.32301 l -1.035079,-0.54105 c 3.448682,2.702 12.712884,10.25341 13.631204,14.18777 1.12783,4.83189 -1.1991,13.78118 -0.26768,12.57494 8.27622,-10.7181 25.91012,-2.87606 28.89591,3.03237 0.91865,1.81786 2.21575,-5.14907 11.25875,-12.67778 6.88769,-5.7343 13.36032,-9.84274 17.10541,-10.50633 -9.0738,-0.10902 -17.09208,-2.32901 -22.29941,-10.17096 -7.37394,6.81335 -11.47344,5.31429 -12.66434,-3.56774 z m 34.96375,13.7387 c 0.58936,0.007 1.18299,0.006 1.78077,-0.004 -0.49082,-0.12364 -1.08955,-0.11834 -1.78077,0.004 z m -70.623594,-6.61097 c -0.786749,-0.61641 -1.369425,-1.06298 -1.369425,-1.06298 l 0.669727,0.69711 z m -1.369425,-1.06298 c 0.742302,0.30283 1.492292,0.5706 2.247924,0.80873 -0.756515,-0.27673 -1.508059,-0.54877 -2.247924,-0.80873 z"
     style="fill:url(#linearGradient888);fill-opacity:1;stroke:#008001;stroke-width:0.79375;stroke-linecap:butt;stroke-linejoin:miter;stroke-miterlimit:4;stroke-dasharray:none;stroke-opacity:1"
     id="path980" />
  <path
     d="m 86.86467,124.86142 c -5.859174,5.70407 -13.217707,11.41932 -19.765203,17.15761 -4.174929,1.52549 -19.284277,19.46219 -21.378539,21.75733 -2.094264,2.29514 1.828829,-4.22558 1.828829,-4.22558 3.339637,-5.16975 9.840553,-10.89443 16.144235,-16.96382 6.396402,-4.64646 14.297768,-10.32614 20.016348,-16.28945 -8.936498,3.54431 -19.190047,3.30164 -30.20074,0.88264 1.369568,14.44989 -5.627063,21.3308 -18.372521,23.00996 7.198434,12.0315 4.184118,20.65841 -2.675289,28.00397 10.90005,-9.49213 28.208398,-6.59548 30.534569,-1.90531 2.102097,4.23837 -2.393481,-21.56472 25.116811,-24.67188 -11.721335,-11.03824 -4.921406,-18.60364 -1.2485,-26.75547 z m 0,0 -2.926953,1.20251 c -0.07403,0.0781 -0.152595,0.1556 -0.227377,0.23358 1.070337,-0.42451 2.122781,-0.90006 3.15433,-1.43609 z"
     style="fill:url(#linearGradient872);fill-opacity:1;stroke:#008001;stroke-width:0.794001;stroke-linecap:butt;stroke-linejoin:miter;stroke-miterlimit:4;stroke-dasharray:none;stroke-opacity:1"
     id="path1092" />
  <ellipse
     ry="11.855956"
     rx="12.234337"
     cy="131.42453"
     cx="87.910645"
     id="path1100"
     style="fill:url(#radialGradient1124);fill-opacity:1;stroke:none;stroke-width:0.793999;stroke-linecap:round;stroke-miterlimit:4;stroke-dasharray:none;stroke-opacity:1" />
  <ellipse
     style="fill:url(#radialGradient1132);fill-opacity:1;stroke:none;stroke-width:0.793999;stroke-linecap:round;stroke-miterlimit:4;stroke-dasharray:none;stroke-opacity:1"
     id="ellipse1130"
     cx="102.85672"
     cy="119.56857"
     rx="12.234337"
     ry="11.855956" />
  <ellipse
     style="fill:url(#radialGradient1128);fill-opacity:1;stroke:none;stroke-width:0.960377;stroke-linecap:round;stroke-miterlimit:4;stroke-dasharray:none;stroke-opacity:1"
     id="ellipse1126"
     cx="79.176338"
     cy="116.63873"
     rx="14.788412"
     ry="14.349568" />
</svg>
